<svg id="vector" xmlns="http://www.w3.org/2000/svg" width="24.036362" height="44" viewBox="0 0 128.0909 234.47806"><path fill="#ffffff" d="M0.545,117.217a63.5,63.5 0,1 0,127 0a63.5,63.5 0,1 0,-127 0z" stroke="#000000" stroke-linejoin="miter" stroke-width="1.090909" id="path_0"/><path fill="#2962ff" d="M64.045,117.217m-52.917,0a52.917,52.917 0,1 1,105.833 0a52.917,52.917 0,1 1,-105.833 0" stroke="#000000" stroke-linejoin="miter" stroke-width="1.11111104" id="path_1"/><path fill="#2962ff" d="m21.712,53.717c42.333,-10.583 42.333,-10.583 42.333,-10.583l42.333,10.583 -42.333,-52.917z" stroke="#000000" stroke-linecap="butt" stroke-linejoin="miter" stroke-width="1" id="path_2"/><path fill="#2962ff" fill-opacity="0" d="M21.712,233.634C64.045,223.05 64.045,223.05 64.045,223.05l42.333,10.583 -42.333,-52.917z" stroke-opacity="0" stroke="#000000" stroke-linecap="butt" stroke-linejoin="miter" stroke-width="1" id="path_3"/></svg>