<svg id="vector" xmlns="http://www.w3.org/2000/svg" width="24.036364" height="44" viewBox="0 0 128.09091 234.47806"><path fill="#ffffff" d="M0.545,117.217a63.5,63.5 0,1 0,127 0a63.5,63.5 0,1 0,-127 0z" stroke="#000000" stroke-linejoin="miter" stroke-width="1.09090912" id="path_0"/><path fill="#2962ff" fill-opacity="0" d="m21.712,233.634c42.333,-10.583 42.333,-10.583 42.333,-10.583l42.333,10.583 -42.333,-52.917z" stroke-opacity="0" stroke="#000000" stroke-linecap="butt" stroke-linejoin="miter" stroke-width="1" id="path_1"/><path fill="#2962ff" fill-opacity="0" d="m21.712,53.717c42.333,-10.583 42.333,-10.583 42.333,-10.583l42.333,10.583 -42.333,-52.917z" stroke-opacity="0" stroke="#000000" stroke-linecap="butt" stroke-linejoin="miter" stroke-width="1" id="path_2"/><path fill="#2962ff" d="M64.045,117.217m-52.917,0.012a52.917,52.917 134.987,1 1,105.833 -0.023a52.917,52.917 134.987,1 1,-105.833 0.023" stroke="#000000" stroke-linejoin="miter" stroke-width="1.11111116" id="path_3"/></svg>